<svg width="680" height="397" viewBox="0 0 680 397" fill="none" xmlns="http://www.w3.org/2000/svg">
<path d="M515.305 337.558H433.307V105.87L433.664 105.92L515.305 117.234V337.558ZM433.935 336.93H514.678V117.781L433.935 106.592V336.93Z" fill="#B7B7B7"/>
<path d="M507.363 138.645H440.678V128.706H507.363V138.645ZM441.306 138.017H506.735V129.333H441.306V138.017Z" fill="#B7B7B7"/>
<path d="M507.363 159.747H440.678V149.808H507.363V159.747ZM441.306 159.119H506.735V150.436H441.306V159.119Z" fill="#B7B7B7"/>
<path d="M507.363 180.856H440.678V170.917H507.363V180.856ZM441.306 180.228H506.735V171.545H441.306V180.228Z" fill="#B7B7B7"/>
<path d="M507.363 201.964H440.678V192.025H507.363V201.964ZM441.306 201.337H506.735V192.653H441.306V201.337Z" fill="#B7B7B7"/>
<path d="M507.363 223.073H440.678V213.134H507.363V223.073ZM441.306 222.445H506.735V213.762H441.306V222.445Z" fill="#B7B7B7"/>
<path d="M507.363 244.182H440.678V234.243H507.363V244.182ZM441.306 243.554H506.735V234.871H441.306V243.554Z" fill="#B7B7B7"/>
<path d="M507.363 265.284H440.678V255.345H507.363V265.284ZM441.306 264.656H506.735V255.973H441.306V264.656Z" fill="#B7B7B7"/>
<path d="M507.363 286.393H440.678V276.454H507.363V286.393ZM441.306 285.765H506.735V277.082H441.306V285.765Z" fill="#B7B7B7"/>
<path d="M507.363 307.502H440.678V297.563H507.363V307.502ZM441.306 306.874H506.735V298.191H441.306V306.874Z" fill="#B7B7B7"/>
<path d="M433.934 337.557H409.617V149.814H433.934V337.557ZM410.245 336.93H433.306V150.442H410.245V336.93Z" fill="#B7B7B7"/>
<path d="M410.057 337.557H385.74V149.814H410.057V337.557ZM386.368 336.93H409.429V150.442H386.368V336.93Z" fill="#B7B7B7"/>
<path d="M386.317 337.557H362V149.814H386.317V337.557ZM362.628 336.93H385.689V150.442H362.628V336.93Z" fill="#B7B7B7"/>
<path d="M362.578 337.557H338.261V149.814H362.578V337.557ZM338.889 336.93H361.95V150.442H338.889V336.93Z" fill="#B7B7B7"/>
<path d="M421.076 150.417H352.199V137.922H421.069V150.417H421.076ZM352.827 149.789H420.442V138.55H352.827V149.789Z" fill="#B7B7B7"/>
<path d="M393.38 138.544H378.908V54.8375H393.38V138.544ZM379.536 137.916H392.753V55.4653H379.536V137.916Z" fill="#B7B7B7"/>
<path d="M338.983 337.35H251.314V0H338.977V337.35H338.983ZM251.942 336.723H338.349V0.627862H251.942V336.723Z" fill="#B7B7B7"/>
<path d="M338.983 75.2431H316.593V59.7788H338.983V75.2431ZM317.221 74.6152H338.355V60.4067H317.221V74.6152Z" fill="#B7B7B7"/>
<path d="M317.221 75.2431H294.832V59.7788H317.221V75.2431ZM295.466 74.6152H316.6V60.4067H295.466V74.6152Z" fill="#B7B7B7"/>
<path d="M295.466 75.2431H273.076V59.7788H295.466V75.2431ZM273.704 74.6152H294.838V60.4067H273.704V74.6152Z" fill="#B7B7B7"/>
<path d="M273.704 75.2431H251.314V59.7788H273.704V75.2431ZM251.942 74.6152H273.076V60.4067H251.942V74.6152Z" fill="#B7B7B7"/>
<path d="M338.983 105.186H316.593V89.7215H338.983V105.186ZM317.221 104.558H338.355V90.3493H317.221V104.558Z" fill="#B7B7B7"/>
<path d="M317.221 105.186H294.832V89.7215H317.221V105.186ZM295.466 104.558H316.6V90.3493H295.466V104.558Z" fill="#B7B7B7"/>
<path d="M295.466 105.186H273.076V89.7215H295.466V105.186ZM273.704 104.558H294.838V90.3493H273.704V104.558Z" fill="#B7B7B7"/>
<path d="M273.704 105.186H251.314V89.7215H273.704V105.186ZM251.942 104.558H273.076V90.3493H251.942V104.558Z" fill="#B7B7B7"/>
<path d="M338.983 135.128H316.593V119.664H338.983V135.128ZM317.221 134.5H338.355V120.292H317.221V134.5Z" fill="#B7B7B7"/>
<path d="M317.221 135.128H294.832V119.664H317.221V135.128ZM295.466 134.5H316.6V120.292H295.466V134.5Z" fill="#B7B7B7"/>
<path d="M295.466 135.128H273.076V119.664H295.466V135.128ZM273.704 134.5H294.838V120.292H273.704V134.5Z" fill="#B7B7B7"/>
<path d="M273.704 135.128H251.314V119.664H273.704V135.128ZM251.942 134.5H273.076V120.292H251.942V134.5Z" fill="#B7B7B7"/>
<path d="M338.983 165.071H316.593V149.607H338.983V165.071ZM317.221 164.443H338.355V150.235H317.221V164.443Z" fill="#B7B7B7"/>
<path d="M317.221 165.071H294.832V149.607H317.221V165.071ZM295.466 164.443H316.6V150.235H295.466V164.443Z" fill="#B7B7B7"/>
<path d="M295.466 165.071H273.076V149.607H295.466V165.071ZM273.704 164.443H294.838V150.235H273.704V164.443Z" fill="#B7B7B7"/>
<path d="M273.704 165.071H251.314V149.607H273.704V165.071ZM251.942 164.443H273.076V150.235H251.942V164.443Z" fill="#B7B7B7"/>
<path d="M338.983 224.957H316.593V209.493H338.983V224.957ZM317.221 224.329H338.355V210.121H317.221V224.329Z" fill="#B7B7B7"/>
<path d="M317.221 224.957H294.832V209.493H317.221V224.957ZM295.466 224.329H316.6V210.121H295.466V224.329Z" fill="#B7B7B7"/>
<path d="M295.466 224.957H273.076V209.493H295.466V224.957ZM273.704 224.329H294.838V210.121H273.704V224.329Z" fill="#B7B7B7"/>
<path d="M273.704 224.957H251.314V209.493H273.704V224.957ZM251.942 224.329H273.076V210.121H251.942V224.329Z" fill="#B7B7B7"/>
<path d="M338.983 254.9H316.593V239.435H338.983V254.9ZM317.221 254.272H338.355V240.063H317.221V254.272Z" fill="#B7B7B7"/>
<path d="M317.221 254.9H294.832V239.435H317.221V254.9ZM295.466 254.272H316.6V240.063H295.466V254.272Z" fill="#B7B7B7"/>
<path d="M295.466 254.9H273.076V239.435H295.466V254.9ZM273.704 254.272H294.838V240.063H273.704V254.272Z" fill="#B7B7B7"/>
<path d="M273.704 254.9H251.314V239.435H273.704V254.9ZM251.942 254.272H273.076V240.063H251.942V254.272Z" fill="#B7B7B7"/>
<path d="M329.006 36.7425H320.492V0H329.006V36.7425ZM321.12 36.1146H328.378V0.627862H321.12V36.1146Z" fill="#B7B7B7"/>
<path d="M309.015 36.7425H300.495V0H309.015V36.7425ZM301.123 36.1146H308.387V0.627862H301.123V36.1146Z" fill="#B7B7B7"/>
<path d="M289.024 36.7425H280.51V0H289.024V36.7425ZM281.132 36.1146H288.39V0.627862H281.132V36.1146Z" fill="#B7B7B7"/>
<path d="M269.027 36.7425H260.513V0H269.027V36.7425ZM261.141 36.1146H268.399V0.627862H261.141V36.1146Z" fill="#B7B7B7"/>
<path d="M679.993 337.557H514.69V262.974L514.878 262.892L597.348 225.955L597.474 226.011L680 262.974V337.557H679.993ZM515.318 336.93H679.366V263.376L597.342 226.633L515.318 263.376V336.93Z" fill="#B7B7B7"/>
<path d="M670.312 270.358L597.342 237.671L526.4 269.447L526.143 268.876L597.342 236.987L597.468 237.043L670.57 269.786L670.312 270.358Z" fill="#B7B7B7"/>
<path d="M636.138 330.507H558.54V322.828H636.138V330.507ZM559.168 329.879H635.51V323.456H559.168V329.879Z" fill="#B7B7B7"/>
<path d="M647.269 337.558H547.414V329.879H647.269V337.558ZM548.042 336.93H646.641V330.507H548.042V336.93Z" fill="#B7B7B7"/>
<path d="M667.499 315.827H652.129V300.457H667.499V315.827ZM652.751 315.199H666.865V301.085H652.751V315.199Z" fill="#B7B7B7"/>
<path d="M642.956 315.827H627.586V300.457H642.956V315.827ZM628.214 315.199H642.328V301.085H628.214V315.199Z" fill="#B7B7B7"/>
<path d="M569.327 315.827H553.957V300.457H569.327V315.827ZM554.584 315.199H568.699V301.085H554.584V315.199Z" fill="#B7B7B7"/>
<path d="M544.784 315.827H529.414V300.457H544.784V315.827ZM530.041 315.199H544.156V301.085H530.041V315.199Z" fill="#B7B7B7"/>
<path d="M667.499 291.146H652.129V275.776H667.499V291.146ZM652.751 290.518H666.865V276.404H652.751V290.518Z" fill="#B7B7B7"/>
<path d="M642.956 291.146H627.586V275.776H642.956V291.146ZM628.214 290.518H642.328V276.404H628.214V290.518Z" fill="#B7B7B7"/>
<path d="M618.413 291.146H603.043V275.776H618.413V291.146ZM603.671 290.518H617.785V276.404H603.671V290.518Z" fill="#B7B7B7"/>
<path d="M593.87 291.146H578.5V275.776H593.87V291.146ZM579.128 290.518H593.242V276.404H579.128V290.518Z" fill="#B7B7B7"/>
<path d="M569.327 291.146H553.957V275.776H569.327V291.146ZM554.584 290.518H568.699V276.404H554.584V290.518Z" fill="#B7B7B7"/>
<path d="M544.784 291.146H529.414V275.776H544.784V291.146ZM530.041 290.518H544.156V276.404H530.041V290.518Z" fill="#B7B7B7"/>
<path d="M620.561 323.45H577.257V300.457H620.561V323.45ZM577.885 322.822H619.933V301.085H577.885V322.822Z" fill="#B7B7B7"/>
<path d="M599.22 300.771H598.592V323.136H599.22V300.771Z" fill="#B7B7B7"/>
<path d="M251.942 337.558H162.265V201.337H251.942V337.558ZM162.893 336.93H251.314V201.964H162.893V336.93Z" fill="#B7B7B7"/>
<path d="M243.818 216.908H169.592V217.536H243.818V216.908Z" fill="#B7B7B7"/>
<path d="M243.818 231.845H169.592V232.473H243.818V231.845Z" fill="#B7B7B7"/>
<path d="M243.818 246.781H169.592V247.409H243.818V246.781Z" fill="#B7B7B7"/>
<path d="M243.818 261.718H169.592V262.346H243.818V261.718Z" fill="#B7B7B7"/>
<path d="M243.818 276.655H169.592V277.283H243.818V276.655Z" fill="#B7B7B7"/>
<path d="M243.818 291.592H169.592V292.22H243.818V291.592Z" fill="#B7B7B7"/>
<path d="M243.818 306.523H169.592V307.151H243.818V306.523Z" fill="#B7B7B7"/>
<path d="M162.893 337.557H82.3818V188.283H122.923V145.093H189.445V201.971H162.893V337.557ZM83.0097 336.93H162.265V201.336H188.817V145.714H123.551V188.905H83.0097V336.93Z" fill="#B7B7B7"/>
<path d="M153.908 178.909H139.825V158.435H153.908V178.909ZM140.453 178.281H153.28V159.063H140.453V178.281Z" fill="#B7B7B7"/>
<path d="M179.619 178.909H165.536V158.435H179.619V178.909ZM166.164 178.281H178.991V159.063H166.164V178.281Z" fill="#B7B7B7"/>
<path d="M153.908 227.462H139.825V206.981H153.908V227.462ZM140.453 226.834H153.28V207.609H140.453V226.834Z" fill="#B7B7B7"/>
<path d="M153.908 276.014H139.825V255.533H153.908V276.014ZM140.453 275.386H153.28V256.161H140.453V275.386Z" fill="#B7B7B7"/>
<path d="M129.679 227.462H115.596V206.981H129.679V227.462ZM116.224 226.834H129.051V207.609H116.224V226.834Z" fill="#B7B7B7"/>
<path d="M129.679 276.014H115.596V255.533H129.679V276.014ZM116.224 275.386H129.051V256.161H116.224V275.386Z" fill="#B7B7B7"/>
<path d="M104.96 227.462H90.877V206.981H104.96V227.462ZM91.5048 226.834H104.332V207.609H91.5048V226.834Z" fill="#B7B7B7"/>
<path d="M104.96 276.014H90.877V255.533H104.96V276.014ZM91.5048 275.386H104.332V256.161H91.5048V275.386Z" fill="#B7B7B7"/>
<path d="M83.0097 337.558H0V239.435H83.0097V337.558ZM0.627862 336.93H82.3818V240.063H0.627862V336.93Z" fill="#B7B7B7"/>
<path d="M58.9688 265.498H0V254.943H58.9688V265.498ZM0.627862 264.87H58.341V255.571H0.627862V264.87Z" fill="#B7B7B7"/>
<path d="M58.9688 291.624H0V281.069H58.9688V291.624ZM0.627862 290.996H58.341V281.697H0.627862V290.996Z" fill="#B7B7B7"/>
<path d="M58.9688 317.749H0V307.194H58.9688V317.749ZM0.627862 317.121H58.341V307.822H0.627862V317.121Z" fill="#B7B7B7"/>
<path d="M514.69 263.658V133.358H618.413V236.076L597.342 226.639L514.69 263.658ZM515.318 133.986V262.691L597.342 225.949L597.467 226.005L617.785 235.103V133.986H515.318Z" fill="#B7B7B7"/>
<path d="M618.1 151.396H572.981V152.024H618.1V151.396Z" fill="#B7B7B7"/>
<path d="M618.1 165.988H572.981V166.616H618.1V165.988Z" fill="#B7B7B7"/>
<path d="M618.1 180.579H572.981V181.207H618.1V180.579Z" fill="#B7B7B7"/>
<path d="M618.1 195.171H572.981V195.799H618.1V195.171Z" fill="#B7B7B7"/>
<path d="M618.1 209.762H572.981V210.39H618.1V209.762Z" fill="#B7B7B7"/>
<path d="M544.469 151.396H514.539V152.024H544.469V151.396Z" fill="#B7B7B7"/>
<path d="M544.469 165.988H514.539V166.616H544.469V165.988Z" fill="#B7B7B7"/>
<path d="M544.469 180.579H514.539V181.207H544.469V180.579Z" fill="#B7B7B7"/>
<path d="M544.469 195.171H514.539V195.799H544.469V195.171Z" fill="#B7B7B7"/>
<path d="M544.469 209.762H514.539V210.39H544.469V209.762Z" fill="#B7B7B7"/>
<path d="M581.991 380.02H97.1118V380.648H581.991V380.02Z" fill="#B7B7B7"/>
<path d="M574.23 396.188H89.3511V396.816H574.23V396.188Z" fill="#B7B7B7"/>
<path d="M341.689 75.1117C335.134 69.9946 330.362 63.8604 327.531 59.6411C325.86 57.1485 324.517 54.455 323.462 51.6484C320.524 43.7876 313.109 23.3946 294.16 31.2241C274.282 39.4365 285.206 62.14 290.166 74.9547C292.916 82.0684 298.649 83.4434 306.478 80.5427C309.071 79.582 311.941 81.0512 312.587 83.7385C314.641 92.3151 313.353 101.055 313.046 111.346C325.729 106.75 338.317 95.4669 341.689 75.1117Z" fill="#F1C068"/>
<path d="M319.619 367.589H316.555C315.771 367.589 315.394 366.628 315.972 366.094C321.02 361.455 324.096 354.711 323.826 347.259C323.361 334.632 313.09 324.335 300.463 323.846C286.575 323.306 275.148 334.406 275.148 348.175C275.148 355.264 278.181 361.643 283.015 366.094C283.593 366.628 283.222 367.589 282.437 367.589H279.373C278.086 367.589 276.931 368.524 276.805 369.805C276.655 371.274 277.816 372.524 279.26 372.524H319.739C321.177 372.524 322.338 371.274 322.194 369.805C322.062 368.524 320.907 367.589 319.619 367.589Z" fill="black"/>
<path d="M299.741 360.726C306.673 360.726 312.292 355.107 312.292 348.176C312.292 341.244 306.673 335.625 299.741 335.625C292.81 335.625 287.19 341.244 287.19 348.176C287.19 355.107 292.81 360.726 299.741 360.726Z" fill="#274D76"/>
<path d="M497.305 367.589H494.241C493.456 367.589 493.079 366.628 493.657 366.094C498.705 361.455 501.782 354.711 501.512 347.259C501.047 334.632 490.775 324.335 478.149 323.846C464.261 323.306 452.833 334.406 452.833 348.175C452.833 355.264 455.866 361.643 460.701 366.094C461.278 366.628 460.908 367.589 460.123 367.589H457.059C455.772 367.589 454.617 368.524 454.491 369.805C454.34 371.274 455.502 372.524 456.946 372.524H497.424C498.862 372.524 500.024 371.274 499.879 369.805C499.747 368.524 498.592 367.589 497.305 367.589Z" fill="black"/>
<path d="M383.649 101.877C374.721 89.5964 361.856 85.9172 350.944 80.844C347.547 79.2618 344.458 77.2778 341.689 75.1117C338.317 95.467 325.723 106.75 313.046 111.339C312.72 122.39 313.523 135.223 320.806 151.541L323.663 158.435L355.276 189.854L399.911 185.082C399.911 185.088 393.814 115.86 383.649 101.877Z" fill="black"/>
<path d="M477.433 360.726C484.365 360.726 489.984 355.107 489.984 348.176C489.984 341.244 484.365 335.625 477.433 335.625C470.501 335.625 464.882 341.244 464.882 348.176C464.882 355.107 470.501 360.726 477.433 360.726Z" fill="#274D76"/>
<path d="M273.333 220.958L164.135 308.482C154.466 315.985 143.554 314.553 132.749 305.669C130.947 304.187 125.735 299.528 125.735 299.528C124.329 298.078 122.018 298.04 120.562 299.441L119.545 300.426C118.791 301.155 118.766 302.36 119.501 303.114L161.392 346.524C162.289 347.453 163.765 347.478 164.694 346.58C165.655 345.651 167.193 345.526 168.21 346.392C169.378 347.39 169.409 349.148 168.336 350.184L168.248 350.266C167.325 351.164 167.294 352.639 168.191 353.562L180.862 366.71C185.439 371.45 192.866 371.94 198.021 367.84L367.136 231.355L357.078 220.951H273.333V220.958Z" fill="#274D76"/>
<path d="M518.941 332.19H513.824V315.445C513.824 312.048 511.042 309.26 507.639 309.26H505.624C498.73 300.828 489.036 295.422 477.357 295.422H457.203C455.589 295.422 454.032 294.807 452.858 293.702L418.213 259.71C411.017 252.954 401.518 249.187 391.648 249.187H338.669C322.891 249.187 310.855 253.707 300.79 265.856L262.547 309.568V360.714C262.547 360.714 264.148 360.714 266.873 360.714C268.574 360.714 270.1 359.684 270.759 358.108C274.702 348.678 283.637 337.188 299.503 337.721C315.626 338.261 322.652 346.656 325.678 353.148C327.625 357.323 328.215 362.786 328.724 363.64C329.722 365.31 331.549 366.434 333.633 366.434H443.534C446.536 366.434 448.972 363.997 448.972 360.996V357.053C448.972 350.159 451.276 343.41 455.734 338.155C459.953 333.182 466.64 328.762 477.087 328.762C498.184 328.762 504.048 348.025 505.228 351.861C507.099 357.913 509.491 360.839 512.894 360.839H516.247C519.65 360.839 522.425 358.089 522.432 354.693C522.444 338.004 518.941 332.19 518.941 332.19Z" fill="black"/>
<path d="M420.75 352.903H358.893C352.765 352.903 347.786 347.918 347.786 341.796V268.983C347.786 260.262 354.88 253.161 363.601 253.161H393.124C399.17 253.161 404.745 256.194 408.035 261.267L426.105 289.175C427.976 292.063 428.962 295.404 428.962 298.844H427.706C427.706 295.648 426.79 292.541 425.05 289.86L406.98 261.951C403.923 257.23 398.749 254.417 393.124 254.417H363.601C355.571 254.417 349.041 260.953 349.041 268.983V341.796C349.041 347.227 353.462 351.648 358.893 351.648H420.75C424.586 351.648 427.7 348.527 427.7 344.697H428.956C428.962 349.224 425.276 352.903 420.75 352.903Z" fill="black"/>
<path d="M408.45 295.491H366.753C360.475 295.491 355.389 290.469 355.389 284.271V269.95C355.389 264.525 359.847 260.124 365.341 260.124H390.976C395.384 260.124 399.484 262.365 401.826 266.051L414.107 285.389C416.901 289.784 413.699 295.491 408.45 295.491Z" fill="#93B4F6"/>
<path d="M305.418 295.491H330.714C337.031 295.491 342.148 290.437 342.148 284.202V269.536C342.148 264.337 337.878 260.124 332.617 260.124H327.826C322.715 260.124 315.859 264.293 312.594 268.167C309.662 271.645 301.387 282.501 301.387 282.501C296.841 287.524 298.599 295.491 305.418 295.491Z" fill="#93B4F6"/>
<path d="M510.22 340.214H506.082C505.191 340.214 504.469 339.486 504.469 338.6C504.469 337.709 505.197 336.987 506.082 336.987H510.22C511.112 336.987 511.834 337.715 511.834 338.6C511.84 339.492 511.112 340.214 510.22 340.214Z" fill="white"/>
<path d="M510.22 340.842H506.082C504.845 340.842 503.841 339.837 503.841 338.6C503.841 337.364 504.845 336.359 506.082 336.359H510.22C511.457 336.359 512.461 337.364 512.461 338.6C512.461 339.837 511.457 340.842 510.22 340.842ZM506.082 337.615C505.536 337.615 505.097 338.061 505.097 338.6C505.097 339.147 505.542 339.586 506.082 339.586H510.22C510.766 339.586 511.206 339.14 511.206 338.6C511.206 338.054 510.76 337.615 510.22 337.615H506.082Z" fill="black"/>
<path d="M515.544 334.231C512.386 334.231 509.799 331.644 509.799 328.486V314.541C509.799 313.248 510.854 312.193 512.147 312.193C517.176 312.193 521.289 316.305 521.289 321.334V328.48C521.289 331.644 518.708 334.231 515.544 334.231Z" fill="white"/>
<path d="M515.544 334.858C512.028 334.858 509.171 332.002 509.171 328.486V314.541C509.171 312.902 510.502 311.565 512.147 311.565C517.535 311.565 521.917 315.947 521.917 321.334V328.479C521.917 331.995 519.06 334.858 515.544 334.858ZM512.147 312.82C511.199 312.82 510.427 313.593 510.427 314.541V328.486C510.427 331.311 512.725 333.603 515.544 333.603C518.363 333.603 520.661 331.305 520.661 328.486V321.341C520.661 316.644 516.844 312.82 512.147 312.82Z" fill="black"/>
<path d="M471.694 301.199H289.758V302.454H471.694V301.199Z" fill="black"/>
<path d="M496.426 309.028H283.919V310.284H496.426V309.028Z" fill="black"/>
<path d="M340.465 338.82H339.209C339.209 327.399 329.917 318.113 318.502 318.113H277.233V316.857H318.502C330.614 316.857 340.465 326.709 340.465 338.82Z" fill="black"/>
<path d="M432.754 268.286C428.723 264.425 423.675 259.647 415.676 260.124C414.841 260.124 414.364 261.085 414.879 261.75L436.038 289.213C438.116 291.913 441.324 293.489 444.734 293.489H452.393C454.208 293.489 438.907 274.182 432.754 268.286Z" fill="#93B4F6"/>
<path d="M584.966 181.842C606.157 163.885 593.763 111.459 549.869 107.114C551.087 96.0447 536.251 77.46 514.301 71.6962C483.435 63.5905 422.922 76.6249 422.934 130.401C422.94 159.415 454.327 180.681 489.795 170.446C495.088 195.718 509.949 206.341 531.366 205.845C524.309 212.513 525.018 227.645 530.769 234.061C531.297 234.652 530.958 235.587 530.173 235.681C510.785 238.055 506.722 257.983 506.766 268.732C506.766 269.341 506.007 269.592 505.624 269.115C502.943 265.825 497.826 265.385 493.022 269.178C486.11 274.621 485.005 284.064 488.872 287.982C495.841 295.039 511.569 289.86 513.183 280.674C513.258 280.247 513.648 279.983 513.974 280.278C520.742 286.475 544.432 298.712 565.766 283.75C578.782 274.621 579.479 256.451 575.994 246.882C575.618 245.846 576.308 244.792 577.388 244.591C620.428 236.567 608.474 179.619 584.966 181.842ZM514.219 224.964C513.202 221.19 505.893 221.655 506.559 227.237C507.218 232.812 515.167 228.461 514.219 224.964ZM497.512 221.014C502.855 218.22 505.128 213.65 503.847 210.391C502.88 207.936 498.416 207.434 492.671 208.846C489.098 209.725 487.221 213.656 487.12 216.318C487.033 218.647 488.2 220.908 490.291 221.944C492.715 223.149 495.126 222.258 497.512 221.014ZM450.108 184.215C441.123 184.944 436.088 188.435 434.167 192.353C428.013 204.922 443.164 223.953 467.11 220.098C491.302 216.205 484.433 181.428 450.108 184.215ZM581.896 93.9728C589.035 90.7456 595.533 75.9406 581.224 70.4782C573.684 67.5963 567.933 69.0404 563.481 70.8298C558.22 72.9457 554.904 76.0222 554.333 79.8333C552.173 94.2993 574.933 97.1184 581.896 93.9728ZM549.524 64.3188C553.033 62.3222 553.686 59.2583 552.958 56.5898C552.23 53.9214 550.133 51.6486 544.425 51.2342C537.368 50.7193 532.22 55.0641 532.031 58.6681C531.68 65.6876 542.504 68.312 549.524 64.3188Z" fill="#93B4F6"/>
<path d="M488.619 252.463L487.386 252.7L496.633 300.847L497.866 300.611L488.619 252.463Z" fill="black"/>
<path d="M239.033 207.252C224.191 207.252 213.856 221.46 212.713 236.265L200.947 344.201C199.622 356.369 191.008 363.219 177.107 364.814C174.79 365.077 167.815 365.586 167.815 365.586C165.793 365.586 164.161 367.225 164.161 369.24V370.659C164.161 371.708 165.008 372.561 166.057 372.561L226.388 372.618C227.675 372.618 228.724 371.576 228.724 370.282C228.724 368.945 229.703 367.752 231.034 367.62C232.56 367.476 233.847 368.675 233.847 370.169V370.289C233.847 371.576 234.889 372.618 236.176 372.624L254.435 372.656C261.021 372.662 266.54 367.658 267.174 361.103L276.441 265.787C277.364 256.256 285.369 248.986 294.944 248.986H383.498C397.895 248.986 409.573 236.749 409.573 222.345V207.245H239.033V207.252Z" fill="#3B71AB"/>
<path d="M245.682 207.252L217.058 150.713C215.313 147.266 211.771 145.087 207.91 145.087H195.171C192.91 145.087 191.466 147.492 192.521 149.482L223.111 207.245C223.111 207.245 225.955 216.619 231.128 216.619H237.627H250.423H298.247C301.116 216.619 303.446 214.29 303.446 211.421V207.245H245.682V207.252Z" fill="#274D76"/>
<path d="M241.238 216.626H228.442C222.565 216.626 217.165 213.38 214.415 208.181L183.33 149.488C182.275 147.492 183.719 145.093 185.979 145.093H198.719C202.586 145.093 206.121 147.266 207.867 150.719L241.238 216.626Z" fill="#93B4F6"/>
<path d="M429.495 360.538C432.271 360.538 434.6 362.491 435.178 365.096H342.398C342.976 362.491 345.299 360.538 348.08 360.538H429.495ZM429.495 359.282H348.08C344.175 359.282 341.011 362.447 341.011 366.352H436.571C436.565 362.447 433.401 359.282 429.495 359.282Z" fill="black"/>
<path d="M240.177 151.786L243.567 151.774C248.414 151.755 253.067 149.833 256.52 146.437L262.233 140.817C262.459 140.598 262.836 140.786 262.792 141.1L259.42 165.505C259.42 165.505 239.247 170.729 237.408 154.951C237.219 153.274 238.494 151.799 240.177 151.786Z" fill="#F1C068"/>
<path d="M411.03 174.157L390.085 103.83C385.702 90.0109 370.947 82.3572 357.122 86.7397C340 92.1707 331.913 110.448 337.344 127.57L348.633 162.466L286.644 136.749C275.832 132.128 261.95 135.016 259.778 146.575C258.24 154.762 244.866 207.145 253.587 207.189H262.748C268.819 206.147 269.246 201.494 270.665 192.899C273.151 193.313 278.463 194.406 282.814 192.39C284.447 194.274 290.939 194.789 295.478 192.899C298.938 194.01 303.446 193.727 305.92 192.315C328.027 204.564 349.895 216.073 362.302 221.975C372.862 227.004 382.814 226.847 392.954 224.424C415.149 217.781 416.693 192.013 411.03 174.157Z" fill="#F1C068"/>
<path d="M403.935 150.348L390.085 103.83C385.702 90.0109 370.947 82.3572 357.122 86.7397C340 92.1707 331.913 110.448 337.344 127.57L348.288 161.386C352.783 159.93 384.553 149.884 403.935 150.348Z" fill="black"/>
<path d="M524.673 354.686H513.183C512.7 354.686 512.273 354.385 512.103 353.939L509.127 345.997C508.844 345.243 509.403 344.44 510.207 344.44H524.673C527.002 344.44 528.886 346.323 528.886 348.653V350.474C528.886 352.803 527.002 354.686 524.673 354.686Z" fill="#93B4F6"/>
<path d="M376.278 174.483C376.127 174.427 360.839 168.475 348.382 163.044L348.884 161.895C361.316 167.319 376.579 173.259 376.73 173.315L376.278 174.483Z" fill="black"/>
<path d="M273.994 169.989L271.192 190.145L272.436 190.318L275.238 170.162L273.994 169.989Z" fill="black"/>
<path d="M284.836 191.354L283.719 190.783C284.497 189.257 284.974 187.618 285.144 185.917L286.4 173.466L287.649 173.592L286.393 186.042C286.205 187.901 285.678 189.69 284.836 191.354Z" fill="black"/>
<path d="M297.619 191.863L296.489 191.316C297.192 189.86 297.632 188.303 297.795 186.689L298.938 175.312L300.187 175.438L299.045 186.815C298.869 188.573 298.385 190.268 297.619 191.863Z" fill="black"/>
<path d="M307.929 191.668L306.83 191.059C307.74 189.414 308.299 187.631 308.488 185.76L309.354 177.139L310.604 177.265L309.737 185.885C309.536 187.926 308.927 189.872 307.929 191.668Z" fill="black"/>
<path d="M170.208 310.345L169.291 311.202L197.067 340.94L197.984 340.083L170.208 310.345Z" fill="white"/>
<path d="M269.227 341.941H210.566V343.196H269.227V341.941Z" fill="black"/>
<path d="M293.45 67.9163C293.03 67.9163 292.603 67.8221 292.213 67.64C291.46 67.2821 290.895 66.6166 290.669 65.8067C290.298 64.551 287.172 53.4378 291.466 51.8995L291.887 53.0799C289.482 53.9401 290.606 61.1291 291.874 65.4551C292.006 65.9197 292.32 66.2964 292.753 66.4973C293.18 66.6982 293.676 66.7045 294.11 66.5161L296.916 65.3232L297.406 66.4785L294.606 67.6651C294.235 67.8347 293.846 67.9163 293.45 67.9163Z" fill="black"/>
<path d="M295.579 53.9337L295.089 52.7785C297.575 51.7299 299.39 51.0895 301.901 51.6546L301.625 52.8789C299.547 52.408 298.121 52.8664 295.579 53.9337Z" fill="black"/>
<path d="M285.903 58.9316L284.98 58.0777C286.086 56.8785 288.453 55.6353 290.016 55.1707L290.374 56.3762C288.967 56.7969 286.833 57.927 285.903 58.9316Z" fill="black"/>
<path d="M317.322 56.3323L316.744 55.2147C318.044 54.5366 318.854 53.2118 318.854 51.7489C318.854 49.5953 317.102 47.8436 314.948 47.8436C313.347 47.8436 311.928 48.8042 311.326 50.286L310.164 49.8151C310.955 47.8561 312.839 46.5879 314.948 46.5879C317.793 46.5879 320.109 48.9047 320.109 51.7489C320.103 53.6827 319.036 55.4407 317.322 56.3323Z" fill="black"/>
<path d="M319.074 41.6529C318.772 41.0627 318.364 40.4537 318.358 40.416C313.843 32.8942 306.416 26.1573 294.16 31.2178C287.297 34.0495 284.108 38.6141 283.078 43.8944C282.708 45.7905 285.232 46.8202 286.331 45.2317L286.356 45.1941C288.315 42.3687 300.966 38.5827 306.422 39.085C311.476 39.5558 317.184 41.2009 319.074 41.6529Z" fill="black"/>
<path d="M283.486 55.3842C282.802 46.3053 299.484 39.4992 317.579 41.2761C310.245 39.4365 295.974 34.8217 289.011 32.5551C286.412 31.7075 283.605 31.8079 281.075 32.8251C271.13 36.812 271.387 50.9891 281.477 54.6119C281.847 54.7437 283.197 55.2774 283.486 55.3842Z" fill="#274D76"/>
<path d="M291.523 74.3896C289.683 74.3896 287.787 73.4729 287.103 71.2503L288.302 70.8798C288.911 72.8702 290.788 73.3097 292.213 73.0773C293.783 72.8199 295.453 71.6709 295.409 69.756C295.403 69.442 295.579 69.1595 295.868 69.0339C296.144 68.9083 296.464 68.9711 296.677 69.1783C298.272 70.7292 301.186 70.3022 303.088 69.0025C303.766 68.5379 305.894 66.8238 304.827 64.3187L305.982 63.8227C306.943 66.0704 306.102 68.45 303.797 70.0322C301.776 71.4198 298.737 72.01 296.583 70.6852C296.169 72.7697 294.241 74.0129 292.421 74.3142C292.125 74.3645 291.83 74.3896 291.523 74.3896Z" fill="black"/>
<path d="M311.815 366.346H287.85V367.602H311.815V366.346Z" fill="white"/>
<path d="M489.143 366.346H465.177V367.602H489.143V366.346Z" fill="white"/>
<path d="M496.607 241.338C493.468 242.073 488.671 246.261 485.438 250.405C477.137 261.041 452.852 293.413 452.852 293.413C452.406 293.997 452.437 294.813 452.921 295.366L453.674 296.345C454.038 296.822 454.603 297.099 455.206 297.099H459.972L496.482 244.729L497.712 242.977C498.265 242.18 497.549 241.125 496.607 241.338Z" fill="black"/>
<path d="M344.546 155.013L335.611 127.199C330.859 112.212 336.986 95.7557 350.184 88.0769L350.818 89.1631C338.123 96.5531 332.234 112.388 336.811 126.822L345.745 154.637L344.546 155.013Z" fill="black"/>
<path d="M257.92 205.625H252.407V204.37H257.92C260.72 204.37 262.993 202.097 262.993 199.296C262.993 196.496 260.72 194.223 257.92 194.223H252.131V192.968H257.92C261.411 192.968 264.249 195.806 264.249 199.296C264.249 202.781 261.404 205.625 257.92 205.625Z" fill="black"/>
<path d="M258.259 147.375L254.712 166.059L255.946 166.293L259.493 147.61L258.259 147.375Z" fill="black"/>
</svg>
